<?xml version="1.0" encoding="UTF-8" standalone="no"?>
<!-- Created with Inkscape (http://www.inkscape.org/) -->

<svg
   width="210mm"
   height="210mm"
   viewBox="0 0 210 210"
   version="1.1"
   id="svg1"
   xml:space="preserve"
   inkscape:version="1.4 (e7c3feb100, 2024-10-09)"
   sodipodi:docname="logo.svg"
   inkscape:export-filename="logo.png"
   inkscape:export-xdpi="96"
   inkscape:export-ydpi="96"
   xmlns:inkscape="http://www.inkscape.org/namespaces/inkscape"
   xmlns:sodipodi="http://sodipodi.sourceforge.net/DTD/sodipodi-0.dtd"
   xmlns:xlink="http://www.w3.org/1999/xlink"
   xmlns="http://www.w3.org/2000/svg"
   xmlns:svg="http://www.w3.org/2000/svg"><sodipodi:namedview
     id="namedview1"
     pagecolor="#ffffff"
     bordercolor="#000000"
     borderopacity="0.25"
     inkscape:showpageshadow="2"
     inkscape:pageopacity="0.0"
     inkscape:pagecheckerboard="0"
     inkscape:deskcolor="#d1d1d1"
     inkscape:document-units="mm"
     inkscape:zoom="0.97446568"
     inkscape:cx="300.1645"
     inkscape:cy="450.5033"
     inkscape:window-width="3428"
     inkscape:window-height="2132"
     inkscape:window-x="0"
     inkscape:window-y="0"
     inkscape:window-maximized="1"
     inkscape:current-layer="layer1" /><defs
     id="defs1"><linearGradient
       id="linearGradient2"
       inkscape:collect="always"><stop
         style="stop-color:#1097da;stop-opacity:0.99607843;"
         offset="0"
         id="stop2" /><stop
         style="stop-color:#55e076;stop-opacity:0.98823529;"
         offset="1"
         id="stop3" /></linearGradient><linearGradient
       inkscape:collect="always"
       xlink:href="#linearGradient2"
       id="linearGradient3"
       x1="47.125481"
       y1="148.7155"
       x2="153.05345"
       y2="148.7155"
       gradientUnits="userSpaceOnUse"
       gradientTransform="matrix(1.1126279,0,0,1.1126279,-7.2001246,-61.006674)" /></defs><g
     inkscape:label="Layer 1"
     inkscape:groupmode="layer"
     id="layer1"><path
       id="path1"
       style="fill:url(#linearGradient3);stroke-width:1.11263"
       d="M 104.16224,10.760058 C 96.33053,10.690129 90.828265,11.538839 83.23059,14.067839 61.012405,21.46347 16.757803,66.046231 71.578321,131.18849 c 15.032161,19.32432 22.841854,32.95006 29.389409,64.12715 0.38212,1.81951 1.89669,2.69794 3.19451,2.84494 1.29783,-0.147 2.8124,-1.02543 3.19452,-2.84494 6.54754,-31.17709 14.35728,-44.80283 29.38941,-64.12715 54.82039,-65.142259 10.56586,-109.72502 -11.65227,-117.120651 -7.59766,-2.529 -13.09995,-3.37771 -20.93166,-3.307781 z m 0,27.246508 A 35.204246,35.204246 0 0 1 139.36629,73.210608 35.204246,35.204246 0 0 1 104.16224,108.41466 35.204246,35.204246 0 0 1 68.957624,73.210608 35.204246,35.204246 0 0 1 104.16224,38.006566 Z m -67.434933,1.536885 c -1.365249,-0.04454 -2.896467,0.147408 -4.560058,0.580716 -6.019742,1.567947 -10.619044,5.767653 -12.817726,11.704014 -0.836503,2.258535 -0.874433,2.9748 -1.080937,20.478584 -0.210889,17.875914 -0.226911,18.166031 -1.110834,20.088174 -1.358309,2.953638 -3.335614,4.74429 -7.3929183,6.694337 -4.2841871,2.059064 -5.003218,3.048814 -4.8205178,6.635674 0.076693,1.50391 1.8160931,3.05548 4.6911503,4.18346 3.4736948,1.36285 6.2393138,3.78995 7.4774378,6.56209 0.910591,2.03881 0.922027,2.23818 1.152233,20.00251 0.147828,11.40623 0.388719,18.39832 0.661211,19.19295 0.929975,2.71204 3.054332,6.08365 5.130425,8.14326 4.184417,4.15118 11.123374,6.50268 15.405074,5.22069 1.588564,-0.47565 2.912731,-1.84424 3.418751,-3.53317 0.364753,-1.21747 0.317256,-1.68297 -0.298982,-2.92371 -1.033318,-2.08044 -2.323984,-2.87138 -5.393186,-3.30605 -4.566478,-0.6467 -7.26487,-2.67901 -8.626796,-6.49655 -0.408963,-1.1463 -0.530023,-5.13915 -0.543342,-17.90215 -0.01035,-9.27363 -0.188012,-17.34216 -0.409376,-18.52829 -0.594283,-3.18425 -2.445442,-6.59655 -4.769922,-8.79238 -1.129812,-1.06733 -2.404939,-2.14058 -2.834009,-2.38497 -0.762349,-0.43423 -0.758029,-0.45959 0.194914,-1.11658 2.739167,-1.8885 5.140682,-5.104663 6.66156,-8.92061 0.926283,-2.324068 0.934369,-2.469455 1.133833,-20.868404 0.195448,-18.026385 0.223739,-18.570761 1.04069,-20.088752 1.667337,-3.098168 3.773176,-4.320664 8.318039,-4.82914 3.472458,-0.3885 4.432317,-0.939055 5.328788,-3.057097 0.813281,-1.921536 0.644074,-3.074952 -0.670985,-4.572708 -1.195019,-1.361065 -3.009102,-2.091669 -5.284517,-2.165898 z m 134.869873,0 c -2.27542,0.07423 -4.08949,0.804833 -5.28451,2.165898 -1.31506,1.497756 -1.48427,2.651172 -0.67099,4.572708 0.89648,2.118042 1.85632,2.668597 5.32879,3.057097 4.54488,0.508476 6.6507,1.730972 8.31804,4.82914 0.81695,1.517991 0.84466,2.062367 1.04011,20.088752 0.19947,18.398949 0.20755,18.544336 1.13383,20.868404 1.52089,3.815947 3.92296,7.03211 6.66214,8.92061 0.95294,0.65699 0.95727,0.68235 0.19492,1.11658 -0.42907,0.24439 -1.70477,1.31764 -2.83459,2.38497 -2.32449,2.19583 -4.17564,5.60813 -4.76992,8.79238 -0.22137,1.18613 -0.39937,9.25466 -0.40938,18.52829 -0.0134,12.763 -0.13437,16.75585 -0.54334,17.90215 -1.36194,3.81754 -4.06029,5.84985 -8.6268,6.49655 -3.0692,0.43467 -4.35928,1.22561 -5.3926,3.30605 -0.61625,1.24074 -0.66433,1.70624 -0.29957,2.92371 0.50603,1.68893 1.83075,3.05752 3.41933,3.53317 4.2817,1.28199 11.22065,-1.06951 15.40508,-5.22069 2.0761,-2.05961 4.19986,-5.43122 5.12985,-8.14326 0.27249,-0.79463 0.51338,-7.78672 0.66121,-19.19295 0.2302,-17.76433 0.24164,-17.9637 1.15223,-20.00251 1.23813,-2.77214 4.00373,-5.19924 7.47744,-6.56209 2.87506,-1.12798 4.61506,-2.67955 4.69172,-4.18346 0.18271,-3.58686 -0.53629,-4.57661 -4.82051,-6.635674 -4.05731,-1.950047 -6.03462,-3.740699 -7.39292,-6.694337 -0.88393,-1.922143 -0.89995,-2.21226 -1.11084,-20.088174 -0.2065,-17.503784 -0.24441,-18.220049 -1.08093,-20.478584 -2.19867,-5.936361 -6.79798,-10.136067 -12.81773,-11.704014 -1.6636,-0.433308 -3.1948,-0.625253 -4.56006,-0.580716 z" /></g></svg>
